<?xml version="1.0" encoding="UTF-8"?>
<svg width="700pt" height="700pt" version="1.1" viewBox="0 0 700 700" xmlns="http://www.w3.org/2000/svg" xmlns:xlink="http://www.w3.org/1999/xlink">
 <defs>
  <symbol id="w" overflow="visible">
   <path d="m0.03125 0h-0.015625-0.015625v-0.015625-0.015625h0.015625 0.015625-0.015625v0.015625 0.015625h0.015625v-0.015625z"/>
  </symbol>
  <symbol id="e" overflow="visible">
   <path d="m0.015625-0.015625v0.015625h-0.015625v-0.03125h0.015625v0.015625-0.015625z"/>
  </symbol>
  <symbol id="b" overflow="visible">
   <path d="m0.03125-0.015625h-0.015625v0.015625c0.0078125 0 0.015625-0.0039062 0.015625-0.015625v0.015625h-0.015625-0.015625v-0.015625l0.015625-0.015625v0.015625h0.015625z"/>
  </symbol>
  <symbol id="a" overflow="visible">
   <path d="m0.015625-0.015625v0.015625-0.015625zm0.015625 0v0.015625h-0.015625-0.015625v-0.015625h0.015625-0.015625v-0.015625h0.015625v0.015625h0.015625z"/>
  </symbol>
  <symbol id="d" overflow="visible">
   <path d="m0.015625-0.03125v0.015625 0.015625h-0.015625v-0.015625-0.015625z"/>
  </symbol>
  <symbol id="l" overflow="visible">
   <path d="m0.015625-0.015625v-0.015625h0.015625v0.03125h-0.015625-0.015625v-0.015625l0.015625-0.015625v0.015625zm0 0.015625v-0.015625 0.015625z"/>
  </symbol>
  <symbol id="k" overflow="visible">
   <path d="m0.015625 0v-0.015625 0.015625zm0-0.015625v-0.015625c0.0078125 0 0.015625 0.0078125 0.015625 0.015625v0.015625h-0.015625-0.015625v-0.03125h0.015625z"/>
  </symbol>
  <symbol id="j" overflow="visible">
   <path d="m0-0.03125h0.015625v0.015625-0.015625h0.015625l-0.015625 0.03125v0.015625h-0.015625v-0.015625h0.015625z"/>
  </symbol>
  <symbol id="i" overflow="visible">
   <path d="m0.015625-0.03125v0.015625 0.015625h0.015625v-0.015625c0-0.0078125-0.0078125-0.015625-0.015625-0.015625zm0 0h0.015625v0.015625 0.015625h-0.015625-0.015625v-0.015625-0.015625h0.015625z"/>
  </symbol>
  <symbol id="v" overflow="visible">
   <path d="m0-0.03125h0.015625v0.03125h-0.015625z"/>
  </symbol>
  <symbol id="f" overflow="visible">
   <path d="m0.03125-0.015625v0.015625h-0.015625v-0.015625 0.015625h-0.015625v-0.03125h0.015625v0.015625-0.015625c0.0078125 0 0.015625 0.0078125 0.015625 0.015625z"/>
  </symbol>
  <symbol id="h" overflow="visible">
   <path d="m0-0.03125h0.015625 0.015625v0.015625h-0.015625v0.015625h-0.015625zm0.015625 0v0.015625-0.015625z"/>
  </symbol>
  <symbol id="g" overflow="visible">
   <path d="m0.03125-0.03125v0.015625h-0.015625c0.0078125 0 0.015625 0.0078125 0.015625 0.015625h-0.015625-0.015625 0.015625v-0.015625h-0.015625l0.015625-0.015625h0.015625z"/>
  </symbol>
  <symbol id="c" overflow="visible">
   <path d="m0.015625-0.015625v0.015625-0.015625zm0-0.015625v0.015625h0.015625c0 0.011719-0.0078125 0.015625-0.015625 0.015625h-0.015625v-0.015625l0.015625-0.015625z"/>
  </symbol>
  <symbol id="u" overflow="visible">
   <path d="m0-0.03125h0.015625v0.015625-0.015625h0.015625l-0.015625 0.03125z"/>
  </symbol>
  <symbol id="t" overflow="visible">
   <path d="m0-0.03125h0.015625v0.015625-0.015625h0.015625l-0.015625 0.015625 0.015625 0.015625h-0.015625v-0.015625 0.015625h-0.015625z"/>
  </symbol>
  <symbol id="s" overflow="visible">
   <path d="m0.015625-0.03125v0.03125h-0.015625v-0.03125h0.015625z"/>
  </symbol>
  <symbol id="r" overflow="visible">
   <path d="m0.03125-0.015625v-0.015625c0.0078125 0 0.015625 0.0078125 0.015625 0.015625v0.015625h-0.015625v-0.015625 0.015625h-0.015625v-0.015625 0.015625h-0.015625v-0.03125h0.015625v0.015625-0.015625 0.015625h0.015625z"/>
  </symbol>
  <symbol id="q" overflow="visible">
   <path d="m0.03125-0.015625v0.015625h-0.015625v-0.015625 0.015625h-0.015625v-0.03125h0.015625v0.015625-0.015625c0.0078125 0 0.015625 0.0078125 0.015625 0.015625z"/>
  </symbol>
  <symbol id="p" overflow="visible">
   <path d="m0-0.03125h0.015625l0.015625 0.015625v-0.015625 0.03125l-0.015625-0.015625v0.015625h-0.015625z"/>
  </symbol>
  <symbol id="o" overflow="visible">
   <path d="m0-0.015625v-0.015625h0.015625v0.015625 0.015625-0.015625-0.015625h0.015625v0.03125h-0.015625-0.015625v-0.015625z"/>
  </symbol>
  <symbol id="n" overflow="visible">
   <path d="m0-0.03125h0.015625v0.03125h-0.015625v0.015625zm0 0h0.015625z"/>
  </symbol>
  <symbol id="m" overflow="visible">
   <path d="m0.03125-0.03125v0.015625h-0.015625v0.015625h0.015625-0.015625-0.015625v-0.015625l0.015625-0.015625h0.015625z"/>
  </symbol>
 </defs>
 <g>
  <path d="m371.32 280.95c-0.050781-0.23047-0.078125-0.46484-0.082031-0.70312v-0.15234c0.003906-0.28516 0.042968-0.56641 0.11328-0.83594l-15.664-39.156-5.3047-0.015625-5.3242 0.015625-16.32 39.672c0.011718 0.10547 0.019531 0.21484 0.019531 0.32031v0.078125l16.305 39.742 5.3242 0.015625 5.3086-0.015625 15.629-38.961zm3.8672-4.6289 130.73-26.145c0.10547-0.019531 0.21094-0.039063 0.31641-0.050781l0.41797-0.082032c7.5352-1.5156 10.48-2.1094 16.262 4.0352 0.066407 0.074219 0.13281 0.14844 0.19531 0.22266l11.293 13.074h36.301l20.77-20.77c1.457-1.457 3.8203-1.457 5.2773 0l29.957 29.957c1.457 1.457 1.457 3.8203 0 5.2773l-29.957 29.957c-1.457 1.457-3.8203 1.457-5.2773 0l-20.25-20.25h-36.684l-11.414 14.461c-0.066406 0.085938-0.13672 0.16406-0.21094 0.24219l0.003907 0.003906c-5.7852 6.1445-8.7305 5.5508-16.266 4.0352l-0.73047-0.14844-0.003906 0.015625-130.8-26.16-15.684 39.094c-0.37891 0.94922-1.3164 1.5117-2.2852 1.457l-6.7617 0.019531-6.8828-0.019531c-0.96875 0-1.8008-0.59375-2.1484-1.4414l-16.074-39.188-131.19 26.238-0.003907-0.015625-0.73047 0.14844c-7.5352 1.5156-10.48 2.1094-16.262-4.0352l0.003906-0.003906c-0.074219-0.078125-0.14453-0.15625-0.21094-0.24219l-11.414-14.461h-36.684l-20.25 20.25c-1.457 1.457-3.8203 1.457-5.2773 0l-29.957-29.957c-1.457-1.457-1.457-3.8203 0-5.2773l29.957-29.957c1.457-1.457 3.8203-1.457 5.2773 0l20.77 20.77h36.301l11.293-13.074c0.0625-0.074219 0.125-0.15234 0.19531-0.22266 5.7852-6.1445 8.7305-5.5508 16.262-4.0352l0.41797 0.082032c0.10547 0.011718 0.21094 0.027344 0.31641 0.050781l131.02 26.203 16.246-39.48c0.38281-0.92969 1.293-1.4766 2.2422-1.4414l6.793-0.019531 6.8828 0.019531c0.97656 0 1.8164 0.60547 2.1562 1.4609h0.003906l15.762 39.402zm-28.66 35-11.684-29.957c-0.35547-0.90625-0.32812-1.8711 0-2.7109l11.684-29.957c0.75-1.918 2.9102-2.8633 4.8281-2.1133 1.0078 0.39453 1.75 1.1797 2.1133 2.1133l11.684 29.957c0.35547 0.90625 0.32812 1.8711 0 2.7109l-11.684 29.957c-0.75 1.918-2.9102 2.8633-4.8281 2.1133-1.0078-0.39453-1.75-1.1797-2.1133-2.1133zm-4.2148-31.316 7.6836 19.703 7.6836-19.703-7.6836-19.703zm-211.75-0.80078-24.68-24.68-24.68 24.68 24.68 24.68 12.332-12.332h-5.0352c-2.0625 0-3.7344-1.6719-3.7344-3.7344s1.6719-3.7344 3.7344-3.7344h12.5l4.8828-4.8828zm6.1953-4.3633 1.7227 1.7227c1.457 1.457 1.457 3.8203 0 5.2773l-2.2422 2.2422h23.324l-1.9883-2.5195c-1.2109-1.375-1.25-3.4688-0.015625-4.8906l1.582-1.832h-22.387zm32.984 10.141c0.37109 0.31641 0.67969 0.70313 0.90234 1.1445l11.906 15.086c2.9258 3.0859 4.7383 2.7188 9.332 1.7969l0.73828-0.14844-0.003906-0.015625 113.37-22.676-113.37-22.676c-0.10938-0.023437-0.21875-0.046875-0.32422-0.078125l-0.41016-0.082031c-4.6094-0.92969-6.418-1.293-9.3672 1.832l-7.0898 8.207h7.6602c2.0625 0 3.7344 1.6719 3.7344 3.7344s-1.6719 3.7344-3.7344 3.7344h-14.109l-3.7812 4.3789zm393.48-10.141h-22.387l1.582 1.832c1.2305 1.4258 1.1914 3.5156-0.015626 4.8906l-1.9883 2.5195h23.324l-2.2422-2.2422c-1.457-1.457-1.457-3.8203 0-5.2773l1.7227-1.7227zm11.074 9.2461h12.5c2.0625 0 3.7344 1.6719 3.7344 3.7344s-1.6719 3.7344-3.7344 3.7344h-5.0352l12.332 12.332 24.68-24.68-24.68-24.68-24.68 24.68 4.8828 4.8828zm-44.961 2.0391c0.22266-0.4375 0.53125-0.82812 0.90234-1.1445l4.5469-5.7617-3.7812-4.3789h-14.109c-2.0625 0-3.7344-1.6719-3.7344-3.7344s1.6719-3.7344 3.7344-3.7344h7.6602l-7.0898-8.207c-2.9492-3.125-4.7539-2.7617-9.3672-1.832l-0.41016 0.082031c-0.10547 0.03125-0.21484 0.058594-0.32422 0.078125l-113.37 22.676 113.37 22.676-0.003906 0.015625 0.73828 0.14844c4.5938 0.92578 6.4023 1.2891 9.332-1.7969z"/>
  <use x="70" y="560.140625" xlink:href="#w"/>
  <use x="70.035156" y="560.140625" xlink:href="#e"/>
  <use x="70.058594" y="560.140625" xlink:href="#b"/>
  <use x="70.089844" y="560.140625" xlink:href="#a"/>
  <use x="70.121094" y="560.140625" xlink:href="#d"/>
  <use x="70.144531" y="560.140625" xlink:href="#b"/>
  <use x="70.175781" y="560.140625" xlink:href="#l"/>
  <use x="70.222656" y="560.140625" xlink:href="#k"/>
  <use x="70.257812" y="560.140625" xlink:href="#j"/>
  <use x="70.304688" y="560.140625" xlink:href="#i"/>
  <use x="70.34375" y="560.140625" xlink:href="#v"/>
  <use x="70.359375" y="560.140625" xlink:href="#b"/>
  <use x="70.390625" y="560.140625" xlink:href="#f"/>
  <use x="70.425781" y="560.140625" xlink:href="#a"/>
  <use x="70.472656" y="560.140625" xlink:href="#h"/>
  <use x="70.507812" y="560.140625" xlink:href="#a"/>
  <use x="70.539062" y="560.140625" xlink:href="#f"/>
  <use x="70.570312" y="560.140625" xlink:href="#a"/>
  <use x="70.601562" y="560.140625" xlink:href="#g"/>
  <use x="70.628906" y="560.140625" xlink:href="#c"/>
  <use x="70.664062" y="560.140625" xlink:href="#u"/>
  <use x="70.691406" y="560.140625" xlink:href="#g"/>
  <use x="70.722656" y="560.140625" xlink:href="#t"/>
  <use x="70.75" y="560.140625" xlink:href="#a"/>
  <use x="70" y="560.1875" xlink:href="#s"/>
  <use x="70.019531" y="560.1875" xlink:href="#e"/>
  <use x="70.042969" y="560.1875" xlink:href="#c"/>
  <use x="70.074219" y="560.1875" xlink:href="#r"/>
  <use x="70.140625" y="560.1875" xlink:href="#d"/>
  <use x="70.164062" y="560.1875" xlink:href="#q"/>
  <use x="70.195312" y="560.1875" xlink:href="#b"/>
  <use x="70.242188" y="560.1875" xlink:href="#p"/>
  <use x="70.28125" y="560.1875" xlink:href="#c"/>
  <use x="70.316406" y="560.1875" xlink:href="#o"/>
  <use x="70.347656" y="560.1875" xlink:href="#f"/>
  <use x="70.398438" y="560.1875" xlink:href="#h"/>
  <use x="70.433594" y="560.1875" xlink:href="#e"/>
  <use x="70.453125" y="560.1875" xlink:href="#c"/>
  <use x="70.488281" y="560.1875" xlink:href="#n"/>
  <use x="70.503906" y="560.1875" xlink:href="#b"/>
  <use x="70.535156" y="560.1875" xlink:href="#m"/>
  <use x="70.5625" y="560.1875" xlink:href="#d"/>
 </g>
</svg>
